<svg xmlns="http://www.w3.org/2000/svg" viewBox="0 0 1917.55 651.71"><defs><style>.cls-1{fill:#442444;}.cls-2{fill:#4cb19c;}.cls-3{font-size:340.76px;fill:#fff;stroke:#442443;stroke-miterlimit:10;font-family:BodoniSvtyTwoITCTTBold, Bodoni SvtyTwo ITC TT;letter-spacing:0.01em;}.cls-4{letter-spacing:-0.05em;}.cls-5{letter-spacing:0.01em;}.cls-6{letter-spacing:-0.04em;}.cls-7{letter-spacing:0.02em;}</style></defs><title>light</title><g id="Layer_2" data-name="Layer 2"><g id="Layer_1-2" data-name="Layer 1"><circle class="cls-1" cx="264.71" cy="373.75" r="244.96"/><path class="cls-2" d="M44.25,304.31c-6.43,11.67-8.19,27.28-4.43,34.83,10.25,4.07,15.8,13.26,22.64,21.05,12.42,14.14,26.2,26.71,43.1,35.23,5.37,2.71,11.66,3.61,18.82,5.71.79,4.22,1.78,9.37,2.72,14.53,4.84,26.48,9.46,53,19.89,78.06a216.81,216.81,0,0,0,26.84,47.52l1.49-.11c0-2,.06-4.1,0-6.14a215.41,215.41,0,0,1,11.16-76.41c6.91-20.4,16.18-39.53,31.26-55.35,17.79-18.68,39.13-28.8,65.33-27.38a19.26,19.26,0,0,0,3-.58c-13.44-3.17-25.86-5.92-30.95-20.32,6.71-7.2,15.5-8.94,23.9-10.7,9.35-2,16.91,3.06,23.74,9.22l1.27-1.11c-1-2.3-1.5-4.88-2.9-6.85-7.64-10.72-18.55-16.05-31.28-17.5-8.18-.93-16.39-.62-24.07,3.35-6.85,3.56-10.61,9.3-11,16.66-.4,6.71.44,13.49.75,20.23.12,2.61.26,5.22.36,7.21-3,3.52-5.93,2.91-8.23,1-2.93-2.48-5.94-5.21-7.91-8.45-14.54-24-7.17-52.65,17.27-66.47,15.19-8.58,31.53-11.66,48.75-7.38,35.78,8.91,69.49,22.87,100.38,43,9.21,6,17.29,13.85,25.36,21.4,6.45,6,9.93,13.68,11,22.8.53,4.55,3.71,8.95,6.27,13.06,7.28,11.62,15.47,22.72,22,34.73,3.1,5.67,4,12.88,4.61,19.51,1,11.24-4.17,19.37-15.1,24-2.8,7.07-9,7.88-16,8.28-28.56,1.65-54.26-7.21-78.86-20.52a77.11,77.11,0,0,0-8.77-4.49C326,451.77,323,443,322.65,432.78c-.1-3,.35-5.8-3.48-7.35l-3.91,3.63c-.89-1.86-1.72-3.62-3.06-6.43-1.12,3.22-1.87,5.41-2.91,8.41L303.23,424c-4.23,3.46-2.33,8.28-3.63,12.48l-4.39-2.25-3.57,8.38-4.11.95a51.78,51.78,0,0,0-.32,7.13c.59,6.69.34,7.37-5.89,10.44-3.55,1.76-6.74,3.83-8.64,8.23,6.52,1,13.3.28,18.95,5.29a45.82,45.82,0,0,0-2.89,5.95c-1.32,4-3,8.11-3.37,12.28-.76,8,7.62,13,13.65,8.44a22.1,22.1,0,0,1,3.05-1.51c.59,3.48,1,6.6,1.67,9.68,7.46,36.54,26.53,64.92,60.12,81.95,27.69,14,55.51,12.8,82.34-3.33,4.63-2.78,9.2-5.68,13.8-8.52l1.14,1.35c-2.12,2.3-4,4.85-6.38,6.86-36.23,30.9-77.24,52-124.45,60.07A285,285,0,0,1,252.37,650c-41.19-4.32-80.14-15.86-116.5-35.65-47.62-25.91-84.37-62-106.13-112.59-13.33-31-23.7-62.71-27.6-96.2C-6.45,332,10.66,265.14,56.92,206.68c38.36-48.47,88-80.22,147.54-96.49a257.58,257.58,0,0,1,71.3-8.9c8,.09,16,1.2,23.95,1.74,2.58.18,5.18,0,8.94,0C292.09,83,287.46,61,293.82,36.73c4-15.23,11.87-29.82,20.59-36.73,2.3,1.13,5.2,2.14,7.62,3.83A130.13,130.13,0,0,1,358.4,41.89c8.23,13.21,15.73,26.88,23.71,40.61a1.74,1.74,0,0,0,1.07-.34c8.65-8.93,19.26-14.6,30.91-18.48,12.39-4.13,23.49-10.79,34.58-17.48a74.89,74.89,0,0,1,6.85-3.27c3.75,3.64,2.64,7.16.86,10.09-5.33,8.76-11,17.31-16.57,25.92-.77,1.18-1.68,2.27-2.48,3.35,5.09,5.66,8.62,6.88,14.52,3.14,9.87-6.27,19.23-13.33,28.84-20,3.64-2.52,6.95-5.79,12-5.85,2.26,4,.31,7.37-1.23,10.56a101.88,101.88,0,0,1-29.16,36.14c-2.38,1.88-4.71,3.82-6.81,5.52,1.53,10.83,6.53,15.41,16.15,15a84.59,84.59,0,0,1,29.16,4c8.12,2.52,9.35,6,4.71,13.27-3.42,5.35-7.4,10.35-11.13,15.5-1.31,1.8-2.64,3.59-3.95,5.37,1.57,3.1,3,5.79,4.3,8.57,3.73,8.16,3.93,16.6,2.31,25.32-.58,3.09-.77,6.85.46,9.57,6.2,13.64,8.31,28.33,11.86,42.66,3.3,13.34,7.1,26.55,10.89,39.76.65,2.29,2.54,4.2,3.5,6.44,2,4.65,4.5,9.26,5.37,14.14,1.41,7.89-2.17,14.15-9.21,17.9-7.73,4.11-16,6.41-24.91,5.18-6.86-1-13.45-.5-19.7,3-7.35,4.18-14.75,3.79-21.3-1.59-8.72-7.16-17.12-14.7-25.64-22.1-27.13-23.56-57.18-42.13-91.57-53.18a188.17,188.17,0,0,0-77.23-8.35c-14.1,1.42-28.21,2.69-42.34,3.64A119.84,119.84,0,0,1,177,251.45c-8.05-2.22-13.74-6.75-17.38-14.37C154.8,227,145.82,221,136.71,215.33a6.72,6.72,0,0,0-2.33-.7c-.34-.06-.74.24-2,.73l6.32,17.08-1.16,1a64.72,64.72,0,0,1-6.19-3.22c-3.09-2-6.09-4.22-9-6.51-7.55-6-16.49-7.82-26.56-9.15.53,2.22.79,3.94,1.35,5.55,4.3,12.42,8.58,24.85,13.05,37.21a78.19,78.19,0,0,0,4.55,9.4c4.38,8.39,3.91,13.89-3.68,19.46-8.57,6.29-17.91,11.55-27,17.09-9.84,6-20.25,5.64-30.92,2.52A72.65,72.65,0,0,0,44.25,304.31Z"/><text class="cls-3" transform="translate(663.08 463.81)">K<tspan class="cls-4" x="237.16" y="0">Y</tspan><tspan class="cls-5" x="408.22" y="0">.</tspan><tspan class="cls-6" x="505" y="0">F</tspan><tspan class="cls-5" x="681.17" y="0">a</tspan><tspan class="cls-7" x="834.85" y="0">r</tspan><tspan x="978.98" y="0">m</tspan></text></g></g></svg>